<?xml version="1.0" encoding="UTF-8"?>
<svg xmlns="http://www.w3.org/2000/svg" version="1.1" width="900" height="900" viewBox="0 0 900 900"><rect x="0" y="0" width="900" height="900" fill="#ffffff"/><g transform="scale(9.474)"><g transform="translate(35,35)"><path fill-rule="evenodd" d="M11 0.25L11 1.75A0.25 0.25 0 0 0 11.25 2L11.75 2A0.25 0.25 0 0 0 12 1.75L12 1.25A0.25 0.25 0 0 1 12.25 1L12.75 1A0.25 0.25 0 0 1 13 1.25L13 1.75A0.25 0.25 0 0 0 13.25 2L13.75 2A0.25 0.25 0 0 1 14 2.25L14 3.75A0.25 0.25 0 0 0 14.25 4L14.75 4A0.25 0.25 0 0 1 15 4.25L15 4.75A0.25 0.25 0 0 1 14.75 5L13.25 5A0.25 0.25 0 0 0 13 5.25L13 5.75A0.25 0.25 0 0 1 12.75 6L12.25 6A0.25 0.25 0 0 1 12 5.75L12 4.25A0.25 0.25 0 0 0 11.75 4L11.25 4A0.25 0.25 0 0 1 11 3.75L11 3.25A0.25 0.25 0 0 0 10.75 3L10.25 3A0.25 0.25 0 0 1 10 2.75L10 1.25A0.25 0.25 0 0 0 9.75 1L9.25 1A0.25 0.25 0 0 0 9 1.25L9 1.75A0.25 0.25 0 0 1 8.75 2L8.25 2A0.25 0.25 0 0 0 8 2.25L8 7.75A0.25 0.25 0 0 0 8.25 8L8.75 8A0.25 0.25 0 0 1 9 8.25L9 8.75A0.25 0.25 0 0 1 8.75 9L8.25 9A0.25 0.25 0 0 0 8 9.25L8 9.75A0.25 0.25 0 0 1 7.75 10L3.25 10A0.25 0.25 0 0 0 3 10.25L3 10.75A0.25 0.25 0 0 1 2.75 11L1.25 11A0.25 0.25 0 0 1 1 10.75L1 8.25A0.25 0.25 0 0 0 0.75 8L0.25 8A0.25 0.25 0 0 0 0 8.25L0 10.75A0.25 0.25 0 0 0 0.25 11L0.75 11A0.25 0.25 0 0 1 1 11.25L1 12.75A0.25 0.25 0 0 1 0.75 13L0.25 13A0.25 0.25 0 0 0 0 13.25L0 16.75A0.25 0.25 0 0 0 0.25 17L0.75 17A0.25 0.25 0 0 0 1 16.75L1 13.25A0.25 0.25 0 0 1 1.25 13L1.75 13A0.25 0.25 0 0 1 2 13.25L2 13.75A0.25 0.25 0 0 0 2.25 14L2.75 14A0.25 0.25 0 0 0 3 13.75L3 13.25A0.25 0.25 0 0 1 3.25 13L4.75 13A0.25 0.25 0 0 0 5 12.75L5 12.25A0.25 0.25 0 0 1 5.25 12L5.75 12A0.25 0.25 0 0 1 6 12.25L6 12.75A0.25 0.25 0 0 0 6.25 13L6.75 13A0.25 0.25 0 0 1 7 13.25L7 13.75A0.25 0.25 0 0 1 6.75 14L4.25 14A0.25 0.25 0 0 0 4 14.25L4 14.75A0.25 0.25 0 0 1 3.75 15L3.25 15A0.25 0.25 0 0 0 3 15.25L3 15.75A0.25 0.25 0 0 1 2.75 16L2.25 16A0.25 0.25 0 0 0 2 16.25L2 16.75A0.25 0.25 0 0 0 2.25 17L2.75 17A0.25 0.25 0 0 0 3 16.75L3 16.25A0.25 0.25 0 0 1 3.25 16L3.75 16A0.25 0.25 0 0 1 4 16.25L4 16.75A0.25 0.25 0 0 0 4.25 17L6.75 17A0.25 0.25 0 0 0 7 16.75L7 16.25A0.25 0.25 0 0 0 6.75 16L6.25 16A0.25 0.25 0 0 1 6 15.75L6 15.25A0.25 0.25 0 0 1 6.25 15L7.75 15A0.25 0.25 0 0 1 8 15.25L8 15.75A0.25 0.25 0 0 0 8.25 16L8.75 16A0.25 0.25 0 0 0 9 15.75L9 15.25A0.25 0.25 0 0 1 9.25 15L9.75 15A0.25 0.25 0 0 1 10 15.25L10 15.75A0.25 0.25 0 0 0 10.25 16L10.75 16A0.25 0.25 0 0 0 11 15.75L11 15.25A0.25 0.25 0 0 0 10.75 15L10.25 15A0.25 0.25 0 0 1 10 14.75L10 14.25A0.25 0.25 0 0 1 10.25 14L10.75 14A0.25 0.25 0 0 0 11 13.75L11 11.25A0.25 0.25 0 0 1 11.25 11L11.75 11A0.25 0.25 0 0 1 12 11.25L12 11.75A0.25 0.25 0 0 0 12.25 12L12.75 12A0.25 0.25 0 0 0 13 11.75L13 11.25A0.25 0.25 0 0 1 13.25 11L13.75 11A0.25 0.25 0 0 1 14 11.25L14 12.75A0.25 0.25 0 0 0 14.25 13L15.75 13A0.25 0.25 0 0 1 16 13.25L16 13.75A0.25 0.25 0 0 0 16.25 14L16.75 14A0.25 0.25 0 0 1 17 14.25L17 14.75A0.25 0.25 0 0 1 16.75 15L16.25 15A0.25 0.25 0 0 0 16 15.25L16 15.75A0.25 0.25 0 0 1 15.75 16L14.25 16A0.25 0.25 0 0 0 14 16.25L14 17.75A0.25 0.25 0 0 0 14.25 18L15.75 18A0.25 0.25 0 0 1 16 18.25L16 19.75A0.25 0.25 0 0 1 15.75 20L15.25 20A0.25 0.25 0 0 0 15 20.25L15 20.75A0.25 0.25 0 0 0 15.25 21L15.75 21A0.25 0.25 0 0 1 16 21.25L16 21.75A0.25 0.25 0 0 0 16.25 22L16.75 22A0.25 0.25 0 0 1 17 22.25L17 22.75A0.25 0.25 0 0 0 17.25 23L17.75 23A0.25 0.25 0 0 1 18 23.25L18 23.75A0.25 0.25 0 0 0 18.25 24L18.75 24A0.25 0.25 0 0 1 19 24.25L19 24.75A0.25 0.25 0 0 0 19.25 25L19.75 25A0.25 0.25 0 0 0 20 24.75L20 24.25A0.25 0.25 0 0 1 20.25 24L20.75 24A0.25 0.25 0 0 0 21 23.75L21 23.25A0.25 0.25 0 0 1 21.25 23L22.75 23A0.25 0.25 0 0 1 23 23.25L23 24.75A0.25 0.25 0 0 0 23.25 25L24.75 25A0.25 0.25 0 0 0 25 24.75L25 24.25A0.25 0.25 0 0 0 24.75 24L24.25 24A0.25 0.25 0 0 1 24 23.75L24 23.25A0.25 0.25 0 0 1 24.25 23L24.75 23A0.25 0.25 0 0 0 25 22.75L25 21.25A0.25 0.25 0 0 0 24.75 21L23.25 21A0.25 0.25 0 0 1 23 20.75L23 20.25A0.25 0.25 0 0 0 22.75 20L21.25 20A0.25 0.25 0 0 1 21 19.75L21 17.25A0.25 0.25 0 0 1 21.25 17L21.75 17A0.25 0.25 0 0 0 22 16.75L22 15.25A0.25 0.25 0 0 1 22.25 15L22.75 15A0.25 0.25 0 0 1 23 15.25L23 15.75A0.25 0.25 0 0 0 23.25 16L23.75 16A0.25 0.25 0 0 1 24 16.25L24 17.75A0.25 0.25 0 0 1 23.75 18L22.25 18A0.25 0.25 0 0 0 22 18.25L22 18.75A0.25 0.25 0 0 0 22.25 19L24.75 19A0.25 0.25 0 0 0 25 18.75L25 9.25A0.25 0.25 0 0 0 24.75 9L23.25 9A0.25 0.25 0 0 1 23 8.75L23 8.25A0.25 0.25 0 0 0 22.75 8L18.25 8A0.25 0.25 0 0 0 18 8.25L18 8.75A0.25 0.25 0 0 1 17.75 9L16.25 9A0.25 0.25 0 0 1 16 8.75L16 8.25A0.25 0.25 0 0 1 16.25 8L16.75 8A0.25 0.25 0 0 0 17 7.75L17 1.25A0.25 0.25 0 0 0 16.75 1L16.25 1A0.25 0.25 0 0 1 16 0.75L16 0.25A0.25 0.25 0 0 0 15.75 0L15.25 0A0.25 0.25 0 0 0 15 0.25L15 0.75A0.25 0.25 0 0 1 14.75 1L13.25 1A0.25 0.25 0 0 1 13 0.75L13 0.25A0.25 0.25 0 0 0 12.75 0L11.25 0A0.25 0.25 0 0 0 11 0.25ZM15 2.25L15 2.75A0.25 0.25 0 0 0 15.25 3L15.75 3A0.25 0.25 0 0 0 16 2.75L16 2.25A0.25 0.25 0 0 0 15.75 2L15.25 2A0.25 0.25 0 0 0 15 2.25ZM9 6.25L9 6.75A0.25 0.25 0 0 0 9.25 7L9.75 7A0.25 0.25 0 0 0 10 6.75L10 6.25A0.25 0.25 0 0 0 9.75 6L9.25 6A0.25 0.25 0 0 0 9 6.25ZM11 6.25L11 7.75A0.25 0.25 0 0 0 11.25 8L11.75 8A0.25 0.25 0 0 1 12 8.25L12 8.75A0.25 0.25 0 0 0 12.25 9L12.75 9A0.25 0.25 0 0 1 13 9.25L13 9.75A0.25 0.25 0 0 1 12.75 10L12.25 10A0.25 0.25 0 0 0 12 10.25L12 10.75A0.25 0.25 0 0 0 12.25 11L12.75 11A0.25 0.25 0 0 0 13 10.75L13 10.25A0.25 0.25 0 0 1 13.25 10L13.75 10A0.25 0.25 0 0 0 14 9.75L14 9.25A0.25 0.25 0 0 1 14.25 9L14.75 9A0.25 0.25 0 0 0 15 8.75L15 8.25A0.25 0.25 0 0 1 15.25 8L15.75 8A0.25 0.25 0 0 0 16 7.75L16 6.25A0.25 0.25 0 0 0 15.75 6L15.25 6A0.25 0.25 0 0 0 15 6.25L15 6.75A0.25 0.25 0 0 1 14.75 7L14.25 7A0.25 0.25 0 0 1 14 6.75L14 6.25A0.25 0.25 0 0 0 13.75 6L13.25 6A0.25 0.25 0 0 0 13 6.25L13 6.75A0.25 0.25 0 0 1 12.75 7L12.25 7A0.25 0.25 0 0 1 12 6.75L12 6.25A0.25 0.25 0 0 0 11.75 6L11.25 6A0.25 0.25 0 0 0 11 6.25ZM2 8.25L2 8.75A0.25 0.25 0 0 0 2.25 9L6.75 9A0.25 0.25 0 0 0 7 8.75L7 8.25A0.25 0.25 0 0 0 6.75 8L2.25 8A0.25 0.25 0 0 0 2 8.25ZM9 9.25L9 10.75A0.25 0.25 0 0 1 8.75 11L8.25 11A0.25 0.25 0 0 0 8 11.25L8 11.75A0.25 0.25 0 0 0 8.25 12L8.75 12A0.25 0.25 0 0 1 9 12.25L9 12.75A0.25 0.25 0 0 0 9.25 13L9.75 13A0.25 0.25 0 0 0 10 12.75L10 12.25A0.25 0.25 0 0 0 9.75 12L9.25 12A0.25 0.25 0 0 1 9 11.75L9 11.25A0.25 0.25 0 0 1 9.25 11L10.75 11A0.25 0.25 0 0 0 11 10.75L11 10.25A0.25 0.25 0 0 0 10.75 10L10.25 10A0.25 0.25 0 0 1 10 9.75L10 9.25A0.25 0.25 0 0 0 9.75 9L9.25 9A0.25 0.25 0 0 0 9 9.25ZM20 9.25L20 9.75A0.25 0.25 0 0 1 19.75 10L19.25 10A0.25 0.25 0 0 0 19 10.25L19 10.75A0.25 0.25 0 0 1 18.75 11L18.25 11A0.25 0.25 0 0 0 18 11.25L18 11.75A0.25 0.25 0 0 0 18.25 12L18.75 12A0.25 0.25 0 0 1 19 12.25L19 14.75A0.25 0.25 0 0 1 18.75 15L17.25 15A0.25 0.25 0 0 0 17 15.25L17 15.75A0.25 0.25 0 0 0 17.25 16L20.75 16A0.25 0.25 0 0 0 21 15.75L21 15.25A0.25 0.25 0 0 0 20.75 15L20.25 15A0.25 0.25 0 0 1 20 14.75L20 14.25A0.25 0.25 0 0 1 20.25 14L20.75 14A0.25 0.25 0 0 0 21 13.75L21 11.25A0.25 0.25 0 0 0 20.75 11L20.25 11A0.25 0.25 0 0 1 20 10.75L20 10.25A0.25 0.25 0 0 1 20.25 10L22.75 10A0.25 0.25 0 0 1 23 10.25L23 10.75A0.25 0.25 0 0 1 22.75 11L22.25 11A0.25 0.25 0 0 0 22 11.25L22 11.75A0.25 0.25 0 0 0 22.25 12L23.75 12A0.25 0.25 0 0 0 24 11.75L24 10.25A0.25 0.25 0 0 0 23.75 10L23.25 10A0.25 0.25 0 0 1 23 9.75L23 9.25A0.25 0.25 0 0 0 22.75 9L20.25 9A0.25 0.25 0 0 0 20 9.25ZM15 10.25L15 11.75A0.25 0.25 0 0 0 15.25 12L15.75 12A0.25 0.25 0 0 0 16 11.75L16 11.25A0.25 0.25 0 0 1 16.25 11L16.75 11A0.25 0.25 0 0 0 17 10.75L17 10.25A0.25 0.25 0 0 0 16.75 10L15.25 10A0.25 0.25 0 0 0 15 10.25ZM3 11.25L3 11.75A0.25 0.25 0 0 0 3.25 12L4.75 12A0.25 0.25 0 0 0 5 11.75L5 11.25A0.25 0.25 0 0 0 4.75 11L3.25 11A0.25 0.25 0 0 0 3 11.25ZM6 11.25L6 11.75A0.25 0.25 0 0 0 6.25 12L6.75 12A0.25 0.25 0 0 0 7 11.75L7 11.25A0.25 0.25 0 0 0 6.75 11L6.25 11A0.25 0.25 0 0 0 6 11.25ZM19 11.25L19 11.75A0.25 0.25 0 0 0 19.25 12L19.75 12A0.25 0.25 0 0 0 20 11.75L20 11.25A0.25 0.25 0 0 0 19.75 11L19.25 11A0.25 0.25 0 0 0 19 11.25ZM12 13.25L12 13.75A0.25 0.25 0 0 0 12.25 14L12.75 14A0.25 0.25 0 0 1 13 14.25L13 14.75A0.25 0.25 0 0 1 12.75 15L12.25 15A0.25 0.25 0 0 0 12 15.25L12 16.75A0.25 0.25 0 0 0 12.25 17L12.75 17A0.25 0.25 0 0 0 13 16.75L13 15.25A0.25 0.25 0 0 1 13.25 15L14.75 15A0.25 0.25 0 0 0 15 14.75L15 14.25A0.25 0.25 0 0 0 14.75 14L13.25 14A0.25 0.25 0 0 1 13 13.75L13 13.25A0.25 0.25 0 0 0 12.75 13L12.25 13A0.25 0.25 0 0 0 12 13.25ZM22 13.25L22 13.75A0.25 0.25 0 0 0 22.25 14L23.75 14A0.25 0.25 0 0 0 24 13.75L24 13.25A0.25 0.25 0 0 0 23.75 13L22.25 13A0.25 0.25 0 0 0 22 13.25ZM8 14.25L8 14.75A0.25 0.25 0 0 0 8.25 15L8.75 15A0.25 0.25 0 0 0 9 14.75L9 14.25A0.25 0.25 0 0 0 8.75 14L8.25 14A0.25 0.25 0 0 0 8 14.25ZM8 17.25L8 17.75A0.25 0.25 0 0 0 8.25 18L9.75 18A0.25 0.25 0 0 0 10 17.75L10 17.25A0.25 0.25 0 0 0 9.75 17L8.25 17A0.25 0.25 0 0 0 8 17.25ZM17 17.25L17 19.75A0.25 0.25 0 0 0 17.25 20L19.75 20A0.25 0.25 0 0 0 20 19.75L20 17.25A0.25 0.25 0 0 0 19.75 17L17.25 17A0.25 0.25 0 0 0 17 17.25ZM11 18.25L11 20.75A0.25 0.25 0 0 1 10.75 21L10.25 21A0.25 0.25 0 0 0 10 21.25L10 22.75A0.25 0.25 0 0 1 9.75 23L9.25 23A0.25 0.25 0 0 1 9 22.75L9 20.25A0.25 0.25 0 0 1 9.25 20L9.75 20A0.25 0.25 0 0 0 10 19.75L10 19.25A0.25 0.25 0 0 0 9.75 19L8.25 19A0.25 0.25 0 0 0 8 19.25L8 22.75A0.25 0.25 0 0 0 8.25 23L8.75 23A0.25 0.25 0 0 1 9 23.25L9 23.75A0.25 0.25 0 0 1 8.75 24L8.25 24A0.25 0.25 0 0 0 8 24.25L8 24.75A0.25 0.25 0 0 0 8.25 25L8.75 25A0.25 0.25 0 0 0 9 24.75L9 24.25A0.25 0.25 0 0 1 9.25 24L9.75 24A0.25 0.25 0 0 1 10 24.25L10 24.75A0.25 0.25 0 0 0 10.25 25L10.75 25A0.25 0.25 0 0 0 11 24.75L11 24.25A0.25 0.25 0 0 0 10.75 24L10.25 24A0.25 0.25 0 0 1 10 23.75L10 23.25A0.25 0.25 0 0 1 10.25 23L10.75 23A0.25 0.25 0 0 0 11 22.75L11 21.25A0.25 0.25 0 0 1 11.25 21L11.75 21A0.25 0.25 0 0 1 12 21.25L12 21.75A0.25 0.25 0 0 0 12.25 22L12.75 22A0.25 0.25 0 0 1 13 22.25L13 22.75A0.25 0.25 0 0 1 12.75 23L12.25 23A0.25 0.25 0 0 0 12 23.25L12 24.75A0.25 0.25 0 0 0 12.25 25L12.75 25A0.25 0.25 0 0 0 13 24.75L13 24.25A0.25 0.25 0 0 1 13.25 24L13.75 24A0.25 0.25 0 0 1 14 24.25L14 24.75A0.25 0.25 0 0 0 14.25 25L15.75 25A0.25 0.25 0 0 0 16 24.75L16 23.25A0.25 0.25 0 0 0 15.75 23L15.25 23A0.25 0.25 0 0 1 15 22.75L15 22.25A0.25 0.25 0 0 0 14.75 22L14.25 22A0.25 0.25 0 0 1 14 21.75L14 21.25A0.25 0.25 0 0 0 13.75 21L12.25 21A0.25 0.25 0 0 1 12 20.75L12 19.25A0.25 0.25 0 0 1 12.25 19L12.75 19A0.25 0.25 0 0 0 13 18.75L13 18.25A0.25 0.25 0 0 0 12.75 18L11.25 18A0.25 0.25 0 0 0 11 18.25ZM18 18.25L18 18.75A0.25 0.25 0 0 0 18.25 19L18.75 19A0.25 0.25 0 0 0 19 18.75L19 18.25A0.25 0.25 0 0 0 18.75 18L18.25 18A0.25 0.25 0 0 0 18 18.25ZM18 21.25L18 21.75A0.25 0.25 0 0 0 18.25 22L22.75 22A0.25 0.25 0 0 1 23 22.25L23 22.75A0.25 0.25 0 0 0 23.25 23L23.75 23A0.25 0.25 0 0 0 24 22.75L24 22.25A0.25 0.25 0 0 0 23.75 22L23.25 22A0.25 0.25 0 0 1 23 21.75L23 21.25A0.25 0.25 0 0 0 22.75 21L18.25 21A0.25 0.25 0 0 0 18 21.25ZM14 23.25L14 23.75A0.25 0.25 0 0 0 14.25 24L14.75 24A0.25 0.25 0 0 0 15 23.75L15 23.25A0.25 0.25 0 0 0 14.75 23L14.25 23A0.25 0.25 0 0 0 14 23.25ZM19 23.25L19 23.75A0.25 0.25 0 0 0 19.25 24L19.75 24A0.25 0.25 0 0 0 20 23.75L20 23.25A0.25 0.25 0 0 0 19.75 23L19.25 23A0.25 0.25 0 0 0 19 23.25ZM0 0L7 0L7 7L0 7ZM1 1L1 6L6 6L6 1ZM2 2L5 2L5 5L2 5ZM18 0L25 0L25 7L18 7ZM19 1L19 6L24 6L24 1ZM20 2L23 2L23 5L20 5ZM0 18L7 18L7 25L0 25ZM1 19L1 24L6 24L6 19ZM2 20L5 20L5 23L2 23Z" fill="#6af92f"/></g></g></svg>
